<?xml version="1.0" standalone="no"?>
<!DOCTYPE svg PUBLIC "-//W3C//DTD SVG 20010904//EN"
 "http://www.w3.org/TR/2001/REC-SVG-20010904/DTD/svg10.dtd">
<svg version="1.0" xmlns="http://www.w3.org/2000/svg"
 width="612.000000pt" height="391.000000pt" viewBox="0 0 612.000000 391.000000"
 preserveAspectRatio="xMidYMid meet">

<g transform="translate(0.000000,391.000000) scale(0.100000,-0.100000)"
fill="#000000" stroke="none">
<path d="M4363 3395 c-85 -19 -185 -68 -222 -110 -66 -75 -74 -103 -80 -293
-3 -94 -3 -172 2 -172 4 0 7 -16 7 -35 0 -19 -4 -35 -10 -35 -5 0 -10 -7 -10
-16 0 -8 5 -12 11 -9 7 5 9 -14 6 -59 -2 -37 -1 -69 3 -71 4 -3 11 -28 14 -57
12 -88 44 -190 76 -238 16 -25 45 -75 63 -112 19 -36 45 -77 59 -90 14 -12 23
-29 21 -35 -3 -7 1 -13 7 -13 8 0 11 -9 8 -24 -8 -41 5 -52 45 -38 78 28 114
2 97 -72 -4 -20 -5 -38 0 -41 10 -6 54 8 121 39 42 19 63 24 79 18 18 -7 20
-11 10 -17 -8 -5 -15 -4 -17 2 -2 6 -14 8 -26 5 -22 -6 -22 -6 2 -12 l25 -6
-25 -23 c-22 -23 -21 -22 26 4 28 16 52 32 55 36 3 4 12 4 20 -1 8 -6 22 -10
30 -10 13 0 13 1 0 10 -12 8 -9 10 12 10 20 0 26 4 22 15 -4 10 1 13 23 12 22
-2 28 2 28 18 0 11 5 23 10 28 6 4 4 11 -5 17 -12 9 -10 11 10 9 14 -1 27 0
30 1 20 7 60 7 88 -2 41 -12 55 -3 18 12 -15 5 -25 14 -21 19 3 5 0 13 -6 17
-8 4 -9 3 -5 -4 4 -7 1 -12 -8 -12 -19 0 -30 17 -14 22 6 2 -20 17 -58 32 -38
15 -98 42 -132 59 l-64 32 7 63 c7 68 11 81 49 187 24 66 27 70 54 67 35 -4
45 8 66 80 32 112 14 185 -38 156 -22 -12 -22 -12 16 87 19 51 23 79 23 190
l0 130 -34 50 c-36 53 -125 121 -196 151 -35 14 -173 44 -200 43 -5 0 -38 -7
-72 -14z m146 -265 c10 -6 11 -10 4 -10 -24 0 -13 -15 24 -35 l36 -20 -37 -10
-37 -11 48 -13 48 -14 -33 -7 c-69 -16 -60 -30 19 -30 40 0 81 -4 89 -10 10
-6 0 -8 -31 -6 -54 4 -118 -19 -121 -43 0 -9 -2 -22 -2 -30 -1 -8 -8 -16 -16
-19 -42 -13 -46 -27 -38 -129 7 -90 6 -98 -13 -119 -26 -28 -56 -36 -63 -18
-5 14 -47 19 -59 7 -4 -3 -1 -13 6 -21 9 -12 9 -16 0 -19 -31 -11 -8 -23 45
-24 85 -1 111 -15 42 -23 -113 -12 -188 -12 -183 -1 2 7 -3 18 -11 25 -14 11
-14 15 1 41 9 16 14 31 11 34 -9 9 -98 -57 -98 -73 0 -7 -4 -10 -10 -7 -5 3
-10 -3 -10 -14 0 -12 6 -21 13 -21 7 0 12 -13 12 -31 0 -30 0 -30 -15 -8 -8
12 -20 57 -26 98 -7 42 -15 87 -19 101 -5 17 -4 21 3 11 14 -19 21 -1 17 44
-10 101 -6 171 10 203 9 18 21 29 27 26 6 -4 9 -3 5 2 -8 14 19 110 40 138 17
24 56 37 148 49 45 6 155 -2 174 -13z m68 -246 c-3 -3 -12 -4 -19 -1 -8 3 -5
6 6 6 11 1 17 -2 13 -5z m96 -21 c-2 -7 2 -13 9 -13 6 0 9 -3 6 -6 -8 -8 -86
14 -94 27 -4 7 9 9 38 7 28 -2 42 -7 41 -15z m-97 -53 c-21 -11 -44 -24 -52
-31 -9 -7 -14 -8 -14 -1 0 12 68 51 90 51 8 0 -2 -8 -24 -19z m29 -20 c3 -5 0
-10 -8 -10 -10 0 -13 -7 -10 -20 4 -16 0 -20 -20 -20 -37 0 -41 15 -11 39 30
23 40 26 49 11z m60 -18 c0 -18 -20 -15 -23 4 -3 10 1 15 10 12 7 -3 13 -10
13 -16z m-578 -64 c-3 -7 -5 -2 -5 12 0 14 2 19 5 13 2 -7 2 -19 0 -25z m534
-42 c8 4 7 9 -2 15 -9 6 3 9 32 9 33 0 49 -5 53 -15 8 -22 -10 -105 -27 -122
-17 -17 -16 -18 -83 75 -45 63 -45 63 -14 47 17 -9 35 -13 41 -9z m-85 -21 c6
-16 -12 -45 -28 -45 -15 0 -21 30 -8 45 16 19 29 19 36 0z m-93 -156 c31 -7
57 -16 57 -21 0 -5 5 -6 10 -3 6 3 10 -3 10 -14 0 -18 -5 -20 -37 -16 -21 3
-67 7 -103 9 -64 4 -100 13 -100 23 0 3 8 12 18 19 21 17 71 17 145 3z m-152
-54 c34 -25 72 -48 86 -51 27 -7 108 0 138 11 14 6 10 -2 -14 -28 -31 -33 -91
-65 -91 -49 0 4 -20 8 -44 8 l-43 1 14 -28 c8 -16 21 -29 29 -29 17 0 54 -36
54 -52 0 -10 -3 -9 -9 1 -6 9 -11 10 -15 2 -9 -13 -76 -15 -76 -2 0 5 -10 11
-22 13 -13 2 -27 13 -33 26 -5 12 -13 22 -17 22 -4 0 -5 14 -1 30 3 20 1 30
-6 30 -7 0 -10 4 -6 9 3 5 -2 25 -11 44 -15 31 -14 87 1 87 3 0 33 -20 66 -45z
m235 -211 c-4 -9 -9 -15 -11 -12 -3 3 -3 13 1 22 4 9 9 15 11 12 3 -3 3 -13
-1 -22z"/>
<path d="M4255 2982 c-31 -3 -47 -12 -77 -44 -28 -31 -35 -45 -28 -57 6 -10
10 -11 10 -3 0 7 15 21 33 32 26 16 46 19 109 17 77 -4 96 4 79 31 -9 15 -77
28 -126 24z"/>
<path d="M4247 2863 c-3 -5 -21 -8 -41 -8 -19 1 -33 -2 -30 -6 7 -11 -7 -40
-17 -33 -5 3 -6 -2 -3 -9 3 -8 15 -18 27 -21 32 -8 37 -7 31 7 -8 22 22 41 43
27 16 -10 16 -11 1 -6 -25 8 -23 -21 2 -34 31 -17 24 -30 -17 -30 -27 0 -34
-3 -26 -11 14 -14 90 -4 114 14 26 20 54 86 41 99 -14 14 -118 23 -125 11z
m77 -81 c-21 -5 -28 4 -20 24 6 16 8 15 21 -2 12 -16 12 -19 -1 -22z"/>
<path d="M4115 2810 c-3 -5 -1 -10 4 -10 6 0 11 5 11 10 0 6 -2 10 -4 10 -3 0
-8 -4 -11 -10z"/>
<path d="M4015 2809 c-9 -14 -2 -20 14 -10 8 6 9 11 3 15 -6 3 -14 1 -17 -5z"/>
<path d="M4041 2204 c-36 -45 -27 -187 16 -259 21 -35 22 -11 2 47 -10 31 -21
80 -25 110 -6 48 -4 57 20 85 14 17 26 34 26 37 0 14 -20 4 -39 -20z"/>
<path d="M4874 2002 c-7 -4 -8 -15 -3 -27 7 -19 8 -19 8 3 1 13 5 21 9 18 4
-2 14 -1 22 5 12 7 11 9 -5 9 -11 0 -25 -4 -31 -8z"/>
<path d="M4810 1930 c0 -5 5 -10 10 -10 6 0 10 5 10 10 0 6 -4 10 -10 10 -5 0
-10 -4 -10 -10z"/>
<path d="M5090 1897 c-19 -12 -46 -33 -59 -47 -42 -44 -113 -160 -151 -250
-54 -123 -120 -253 -127 -247 -5 6 21 82 62 177 13 30 31 79 40 109 18 61 87
174 118 196 11 8 18 17 15 20 -3 4 -22 -8 -43 -26 -41 -37 -82 -112 -115 -214
-26 -80 -112 -266 -143 -309 -42 -59 -117 -234 -122 -286 -4 -38 -17 -79 -28
-88 -19 -15 -140 25 -133 44 3 9 1 12 -4 9 -6 -3 -10 -1 -10 4 0 6 4 11 9 11
12 0 21 49 10 56 -5 3 -16 -11 -26 -30 -18 -39 -42 -46 -108 -33 -42 8 -187
63 -265 100 -54 25 -277 164 -304 189 -11 10 -24 18 -29 18 -6 0 -7 22 -3 54
l6 55 -27 -2 c-39 -3 -40 23 -7 141 32 114 71 207 110 258 24 31 26 36 9 33
-32 -7 -79 -81 -114 -180 -18 -52 -39 -107 -46 -122 l-12 -29 -7 28 c-4 15
-18 36 -31 46 -14 11 -22 25 -18 33 3 8 0 15 -6 15 -6 0 -11 -8 -11 -17 0 -23
-123 108 -146 155 -18 38 -30 38 -14 1 10 -24 31 -60 40 -69 18 -18 70 -136
70 -159 0 -24 37 -94 59 -111 3 -3 32 -36 65 -73 32 -37 72 -75 90 -84 17 -9
53 -38 81 -66 27 -27 67 -57 87 -67 21 -9 36 -19 34 -21 -4 -4 34 -25 139 -75
17 -8 41 -16 53 -17 12 0 24 -7 26 -14 3 -7 14 -13 25 -13 10 0 21 -7 25 -15
3 -8 14 -15 25 -15 23 0 107 -25 133 -40 10 -6 26 -10 36 -10 9 0 25 -9 35
-21 12 -13 24 -18 37 -14 12 4 20 2 20 -4 0 -6 5 -11 11 -11 19 0 39 -28 39
-54 0 -27 15 -36 23 -13 2 6 8 9 12 5 9 -8 -16 -36 -36 -40 -8 -2 -19 -10 -26
-18 -11 -12 -14 -13 -22 -1 -6 9 -18 11 -40 6 -19 -4 -31 -3 -31 4 0 12 -135
3 -162 -10 -9 -5 -19 -5 -22 0 -3 4 -34 11 -68 14 -76 6 -123 27 -105 47 10
10 9 12 -5 7 -9 -3 -22 1 -29 9 -7 8 -43 30 -81 50 -39 19 -75 40 -82 47 -7 6
-31 26 -52 42 -21 17 -56 47 -79 67 -26 25 -50 38 -67 38 -30 0 -37 14 -12 24
8 3 12 11 8 17 -4 8 -9 7 -15 -2 -6 -11 -9 -9 -9 7 0 32 -80 111 -126 123 -27
8 -59 31 -104 76 -36 36 -75 68 -87 71 -12 3 -20 11 -17 19 5 12 -64 75 -82
75 -5 0 -18 12 -31 26 -15 18 -20 34 -17 53 5 22 2 27 -15 28 -12 1 -35 11
-51 23 -16 11 -35 20 -42 18 -15 -2 -94 37 -103 51 -5 8 -62 41 -71 41 -2 0
-1 -6 2 -14 5 -14 173 -102 186 -98 4 1 5 -5 1 -13 -3 -10 6 -25 23 -41 24
-20 27 -26 14 -34 -13 -9 -13 -11 0 -20 8 -5 21 -8 28 -5 7 3 10 1 7 -4 -3 -6
14 -23 37 -39 24 -17 59 -47 79 -69 42 -45 109 -139 109 -153 0 -18 -20 -11
-21 8 0 11 -2 13 -6 4 -3 -8 11 -29 32 -47 20 -19 35 -40 33 -47 -5 -13 26
-48 43 -48 8 0 8 -5 -1 -15 -9 -11 -9 -15 -1 -15 7 0 9 -5 5 -11 -4 -7 -24 -9
-53 -6 l-46 6 38 -11 38 -10 -7 -67 c-4 -36 -13 -84 -21 -106 -9 -22 -16 -49
-18 -61 -8 -60 -31 -145 -52 -193 -13 -30 -21 -56 -19 -58 6 -7 -27 -38 -62
-58 -42 -25 -55 -58 -58 -145 -1 -41 -5 -137 -9 -213 l-7 -137 94 0 95 0 12
153 c9 112 20 178 41 252 17 55 36 127 44 160 l14 60 -4 -85 c-5 -83 -5 -84
11 -51 8 18 15 37 15 41 0 4 8 25 17 46 10 22 18 44 18 49 1 6 6 20 13 32 7
12 12 60 12 112 0 59 6 107 17 138 9 26 17 73 17 103 0 30 2 47 4 38 2 -9 9
-15 17 -12 7 3 16 1 20 -5 3 -6 1 -11 -4 -11 -6 0 -11 -5 -11 -11 0 -6 8 -8
20 -4 15 5 33 -7 75 -49 30 -31 55 -63 55 -71 0 -12 6 -15 19 -10 11 3 23 0
28 -8 4 -7 27 -28 51 -47 23 -18 42 -39 42 -46 0 -7 14 -18 30 -26 17 -7 30
-18 30 -25 0 -6 6 -14 13 -16 9 -4 8 -8 -3 -16 -13 -9 -11 -12 8 -17 18 -5 20
-9 10 -15 -9 -6 -7 -9 10 -9 12 0 25 -6 28 -14 3 -8 13 -12 23 -9 11 3 30 -6
47 -22 23 -22 26 -28 14 -35 -8 -6 -10 -10 -5 -10 6 0 3 -5 -5 -11 -11 -8 -9
-9 10 -3 22 6 23 5 12 -9 -7 -8 -15 -35 -18 -58 -3 -24 -7 -46 -10 -48 -2 -2
2 -11 9 -19 10 -13 8 -14 -12 -7 -16 5 -21 4 -17 -4 4 -6 1 -11 -6 -12 -7 -1
-2 -4 12 -9 l25 -7 -25 -12 c-23 -10 -22 -11 10 -5 19 3 49 15 67 25 29 18 53
13 39 -9 -3 -5 1 -9 8 -9 7 0 11 9 8 22 -4 23 22 53 32 36 4 -6 20 -8 35 -5
16 4 32 1 35 -5 4 -6 21 -11 37 -11 21 0 28 -4 23 -12 -5 -7 -2 -9 8 -6 66 26
59 -163 -12 -293 -5 -9 -12 -33 -16 -53 l-6 -37 108 2 c60 1 121 4 137 7 29 5
38 22 11 22 -9 0 -14 7 -12 18 2 12 14 17 38 19 19 0 25 -1 13 -4 -26 -5 -31
-23 -8 -23 10 0 15 -7 13 -17 -3 -17 13 -18 198 -21 l202 -2 27 32 c36 43 30
80 -38 223 l-53 110 25 60 c19 47 25 80 26 151 l1 92 44 48 c53 60 135 184
151 229 10 26 20 35 44 39 42 8 61 31 69 81 11 80 14 91 30 150 10 33 28 102
42 154 13 52 31 108 40 125 41 83 50 218 17 283 -19 39 -43 55 -43 30 0 -9 -8
-18 -17 -20 -17 -4 -17 -5 0 -6 24 -1 21 -17 -5 -26 -13 -4 -26 -7 -30 -6 -3
0 -5 -16 -3 -37 2 -27 -2 -40 -17 -50 -11 -8 -17 -20 -14 -29 6 -16 -36 -63
-56 -63 -5 0 -8 -6 -5 -14 3 -7 0 -19 -6 -26 -9 -10 -9 -14 1 -17 18 -7 -76
-50 -173 -78 -94 -28 -89 -31 18 -10 43 8 85 15 93 15 23 0 16 -15 -13 -28
l-28 -11 33 3 c17 1 32 0 32 -4 0 -8 -84 -37 -135 -46 -37 -7 -38 -8 -15 -15
41 -12 102 -9 145 6 21 8 41 13 42 11 3 -3 -35 -22 -125 -64 -42 -20 -24 -32
41 -28 34 2 47 -1 47 -11 0 -8 -12 -13 -31 -13 -24 0 -30 -3 -25 -16 3 -9 6
-18 6 -20 0 -2 6 -4 14 -4 17 0 41 -28 32 -37 -3 -4 -39 8 -79 26 -39 18 -93
41 -119 52 -48 19 -48 19 -48 -1 0 -12 7 -23 16 -27 13 -5 13 -7 2 -14 -8 -6
-9 -9 -1 -9 13 0 6 -79 -8 -95 -5 -5 -9 -22 -9 -37 0 -15 -4 -28 -10 -28 -5 0
-9 -4 -7 -9 1 -5 -1 -9 -5 -10 -5 -1 -17 -9 -27 -18 -74 -69 -141 -110 -151
-93 -4 6 -14 8 -24 4 -10 -4 -24 1 -35 11 -18 15 -20 15 -29 -2 -10 -17 -11
-17 -31 1 -16 15 -18 23 -10 44 12 30 -7 48 -29 29 -12 -10 -13 -6 -7 23 21
96 66 175 165 288 37 42 58 68 115 145 36 47 40 61 10 31 -9 -9 -19 -14 -22
-10 -13 13 35 93 86 144 31 31 41 46 25 36 -15 -11 -43 -35 -61 -54 l-33 -35
11 35 c28 89 133 238 206 289 59 43 54 57 -7 18z m-1990 -321 c0 -3 -4 -8 -10
-11 -5 -3 -10 -1 -10 4 0 6 5 11 10 11 6 0 10 -2 10 -4z m336 -371 c27 -25 54
-45 61 -45 7 0 13 -4 13 -10 0 -5 11 -15 25 -22 15 -8 21 -18 17 -25 -13 -21
-129 56 -158 105 -14 23 -21 42 -16 42 5 0 31 -20 58 -45z m1834 -59 c0 -2 -8
-10 -17 -17 -16 -13 -17 -12 -4 4 13 16 21 21 21 13z m-1690 -52 c0 -8 -5 -12
-10 -9 -6 4 -8 11 -5 16 9 14 15 11 15 -7z m63 -58 c4 -10 1 -13 -9 -9 -15 6
-19 23 -5 23 5 0 11 -7 14 -14z m74 -63 c-7 -7 -46 19 -52 35 -3 8 8 4 26 -8
16 -12 28 -24 26 -27z m659 -310 c13 -16 24 -22 24 -15 0 10 6 9 28 -2 15 -8
63 -16 106 -19 62 -3 81 -8 89 -22 8 -15 5 -22 -13 -37 -13 -11 -32 -17 -42
-15 -9 3 -17 2 -16 -2 1 -3 -4 -16 -12 -28 -11 -18 -24 -23 -56 -23 -33 0 -48
7 -82 38 -23 22 -42 42 -42 45 0 4 -8 16 -17 26 -49 54 -54 67 -25 74 31 8 34
7 58 -20z m239 -553 c4 -6 14 -9 22 -8 9 2 18 -2 20 -8 2 -7 -15 -11 -51 -10
-55 1 -55 1 -33 18 26 20 33 22 42 8z m68 -57 c-7 -2 -19 -2 -25 0 -7 3 -2 5
12 5 14 0 19 -2 13 -5z m27 -33 c0 -5 -14 -10 -31 -10 -17 0 -28 4 -24 10 3 6
17 10 31 10 13 0 24 -4 24 -10z"/>
<path d="M5173 1850 c-23 -9 -115 -71 -147 -99 -28 -25 -123 -138 -101 -121
11 9 54 45 95 81 41 36 95 80 120 99 72 54 74 56 33 40z"/>
<path d="M4550 1840 c-9 -6 -10 -10 -3 -10 6 0 15 5 18 10 8 12 4 12 -15 0z"/>
<path d="M3335 1820 c3 -5 8 -10 11 -10 2 0 4 5 4 10 0 6 -5 10 -11 10 -5 0
-7 -4 -4 -10z"/>
<path d="M4240 1803 c1 -15 7 -53 15 -83 l14 -55 -2 79 c-1 53 -6 81 -14 84
-9 2 -13 -6 -13 -25z"/>
<path d="M2760 1767 c0 -3 12 -12 26 -22 15 -9 23 -12 20 -6 -7 11 -46 35 -46
28z"/>
<path d="M3124 1738 c1 -30 5 -33 37 -36 31 -3 35 0 37 23 2 22 -1 25 -19 20
-13 -4 -27 -1 -39 10 -17 15 -18 14 -16 -17z"/>
<path d="M5189 1715 c-20 -7 -56 -25 -80 -41 -55 -34 -189 -153 -189 -167 0
-6 17 5 38 25 54 52 179 142 237 172 54 28 51 32 -6 11z"/>
<path d="M4188 1607 c-3 -15 -2 -27 3 -27 13 0 17 14 9 35 -6 17 -7 16 -12 -8z"/>
<path d="M5115 1603 c-53 -28 -193 -122 -200 -133 -4 -7 12 1 36 16 24 15 82
52 128 81 81 50 101 71 36 36z"/>
<path d="M5060 1525 c-14 -8 -20 -14 -14 -15 5 0 19 7 30 15 24 18 16 19 -16
0z"/>
<path d="M4163 1373 c1 -79 5 -143 8 -143 12 0 17 78 12 162 -10 143 -22 131
-20 -19z"/>
<path d="M4212 1485 c0 -16 2 -22 5 -12 2 9 2 23 0 30 -3 6 -5 -1 -5 -18z"/>
<path d="M5068 1483 c7 -3 16 -2 19 1 4 3 -2 6 -13 5 -11 0 -14 -3 -6 -6z"/>
<path d="M5028 1473 c7 -3 16 -2 19 1 4 3 -2 6 -13 5 -11 0 -14 -3 -6 -6z"/>
<path d="M4958 1403 c7 -3 16 -2 19 1 4 3 -2 6 -13 5 -11 0 -14 -3 -6 -6z"/>
<path d="M4945 1200 c3 -5 8 -10 11 -10 2 0 4 5 4 10 0 6 -5 10 -11 10 -5 0
-7 -4 -4 -10z"/>
<path d="M3075 1110 c-3 -5 0 -10 7 -11 7 0 33 -2 58 -4 l45 -4 -35 14 c-43
17 -67 18 -75 5z"/>
<path d="M3278 1063 c7 -3 16 -2 19 1 4 3 -2 6 -13 5 -11 0 -14 -3 -6 -6z"/>
<path d="M3026 852 c-7 -12 -46 -321 -50 -402 -4 -76 -21 -244 -35 -350 -14
-105 -15 -100 24 -100 l35 0 -1 53 c-1 28 -7 102 -14 162 -7 61 -9 111 -4 113
5 2 9 31 10 65 1 45 3 55 9 37 6 -21 8 -17 15 28 4 28 11 52 16 52 5 0 9 25 9
55 0 37 -4 55 -12 55 -10 0 -9 3 1 9 11 7 11 9 0 14 -9 4 -10 8 -4 14 12 10
13 33 1 52 -6 9 -5 12 2 8 7 -5 10 17 10 68 -1 75 -2 82 -12 67z"/>
<path d="M4045 319 l-40 -18 31 0 c17 -1 37 6 44 14 19 23 9 24 -35 4z"/>
<path d="M4028 283 c6 -2 18 -2 25 0 6 3 1 5 -13 5 -14 0 -19 -2 -12 -5z"/>
<path d="M3393 158 c-29 -49 -53 -114 -53 -145 0 -9 14 -12 43 -11 36 1 38 2
10 5 -18 2 -33 10 -33 16 0 14 70 115 70 101 0 -5 5 -2 10 8 10 16 3 78 -9 78
-4 0 -21 -24 -38 -52z"/>
</g>
</svg>
